<svg width="30" height="24" viewBox="0 0 30 24" fill="none" xmlns="http://www.w3.org/2000/svg">
<g id="_?&#235;&#141;&#137;&#236;&#148;&#160;??1" clip-path="url(#clip0_1224_2179)">
<path id="Vector" d="M22.8821 7.6377H7.11817C5.37556 7.6377 3.96289 9.06931 3.96289 10.8353V19.3454C3.96289 21.1114 5.37556 22.543 7.11817 22.543H22.8821C24.6248 22.543 26.0374 21.1114 26.0374 19.3454V10.8353C26.0374 9.06931 24.6248 7.6377 22.8821 7.6377Z" stroke="#505458" stroke-width="1.5" stroke-miterlimit="10"/>
<path id="Vector_2" fill-rule="evenodd" clip-rule="evenodd" d="M17.4787 3.01779C17.4787 1.633 16.3731 0.5 14.9942 0.5C13.6154 0.5 12.5098 1.62042 12.5098 3.01779C12.5098 4.23892 13.3669 5.24603 14.4973 5.48522V7.54981H15.4911V5.48522C16.6216 5.24603 17.4787 4.23892 17.4787 3.01779Z" fill="#505458"/>
<path id="Vector_3" d="M10.4476 17.2809C11.5933 17.2809 12.5221 16.3396 12.5221 15.1785C12.5221 14.0174 11.5933 13.0762 10.4476 13.0762C9.30185 13.0762 8.37305 14.0174 8.37305 15.1785C8.37305 16.3396 9.30185 17.2809 10.4476 17.2809Z" fill="#505458"/>
<path id="Vector_4" d="M19.553 17.2809C20.6988 17.2809 21.6276 16.3396 21.6276 15.1785C21.6276 14.0174 20.6988 13.0762 19.553 13.0762C18.4073 13.0762 17.4785 14.0174 17.4785 15.1785C17.4785 16.3396 18.4073 17.2809 19.553 17.2809Z" fill="#505458"/>
<path id="Vector_5" d="M1.6646 11.3262H2.36025V18.8795H1.6646C0.745342 18.8795 0 18.1242 0 17.1926V13.0257C0 12.0941 0.745342 11.3388 1.6646 11.3388V11.3262Z" fill="#505458"/>
<path id="Vector_6" d="M28.3237 18.8672H27.628V11.3138H28.3237C29.2429 11.3138 29.9883 12.0692 29.9883 13.0007V17.1677C29.9883 18.0993 29.2429 18.8546 28.3237 18.8546V18.8672Z" fill="#505458"/>
<path id="Vector_7" d="M15.9259 3.67285H14.0625V7.44953H15.9259V3.67285Z" fill="#505458"/>
</g>
<defs>
<clipPath id="clip0_1224_2179">
<rect width="30" height="23" fill="white" transform="translate(0 0.5)"/>
</clipPath>
</defs>
</svg>
