<svg width="24" height="24" viewBox="0 0 24 24" fill="none" xmlns="http://www.w3.org/2000/svg">
<g id="unieum_favicon 1" clip-path="url(#clip0_1196_4788)">
<path id="Vector" d="M6.375 24C4.74 24 3.105 23.3775 1.8675 22.1325C0.66 20.925 0 19.3275 0 17.625C0 15.9225 0.66 14.3175 1.8675 13.1175L5.715 9.27002L6.78 10.335L2.9325 14.1825C2.01 15.105 1.5075 16.3275 1.5075 17.625C1.5075 18.9225 2.0175 20.145 2.9325 21.0675C4.83 22.965 7.92 22.965 9.8175 21.0675L13.665 17.22L14.73 18.285L10.8825 22.1325C9.6375 23.3775 8.0025 24 6.375 24Z" fill="#6BD989"/>
<path id="Vector_2" d="M18.2925 14.73L17.2275 13.665L21.075 9.8175C22.9725 7.92 22.9725 4.83 21.075 2.9325C19.1775 1.035 16.0875 1.035 14.19 2.9325L10.3425 6.78L9.2775 5.715L13.125 1.8675C15.615 -0.6225 19.6575 -0.6225 22.1475 1.8675C24.6375 4.3575 24.6375 8.4 22.1475 10.89L18.3 14.7375L18.2925 14.73Z" fill="#6BD989"/>
<path id="Vector_3" d="M15.1448 7.77922L7.11033 15.8137L8.17629 16.8797L16.2108 8.84518L15.1448 7.77922Z" fill="#6D94EB"/>
</g>
<defs>
<clipPath id="clip0_1196_4788">
<rect width="24" height="24" fill="white"/>
</clipPath>
</defs>
</svg>
