<?xml version="1.0" encoding="utf-8"?>
<!-- Generator: Adobe Illustrator 26.5.3, SVG Export Plug-In . SVG Version: 6.00 Build 0)  -->
<svg version="1.1" id="레이어_1" xmlns="http://www.w3.org/2000/svg" xmlns:xlink="http://www.w3.org/1999/xlink" x="0px"
	 y="0px" viewBox="0 0 173 62" style="enable-background:new 0 0 173 62;" xml:space="preserve">
<g>
	<g>
		<path d="M26.49,33.66c-10.84,0-19.67-7.33-19.67-16.35S15.64,0.96,26.49,0.96s19.67,7.33,19.67,16.35S37.33,33.66,26.49,33.66z
			 M26.49,4.96c-8.64,0-15.67,5.54-15.67,12.35s7.03,12.35,15.67,12.35s15.67-5.54,15.67-12.35S35.13,4.96,26.49,4.96z"/>
		<g>
			<rect x="0.27" y="38.15" width="52.43" height="4"/>
			<g>
				<rect x="14.02" y="40.15" width="4" height="20.72"/>
				<rect x="34.96" y="40.15" width="4" height="20.72"/>
			</g>
		</g>
	</g>
	<g>
		<path d="M81.94,45.34c-11.19,0-20.3-8.67-20.3-19.32V10.28h4v15.75c0,8.45,7.31,15.32,16.3,15.32c5.44,0,10.51-2.54,13.55-6.8
			l3.26,2.32C94.96,42.18,88.68,45.34,81.94,45.34z"/>
		<rect x="104.31" y="2.84" width="4" height="56.86"/>
	</g>
	<path d="M146.48,27.75c-10.28,0-18.64-6.16-18.64-13.74s8.36-13.74,18.64-13.74c10.28,0,18.64,6.16,18.64,13.74
		S156.76,27.75,146.48,27.75z M146.48,4.27c-8.07,0-14.64,4.37-14.64,9.74s6.57,9.74,14.64,9.74c8.07,0,14.64-4.37,14.64-9.74
		S154.55,4.27,146.48,4.27z"/>
	<rect x="120.23" y="31.54" width="52.49" height="4"/>
	<path d="M155.43,61.73h-17.9c-7.42,0-13.45-6.03-13.45-13.45v-1.52c0-3.31,2.69-6,6-6h32.79c3.31,0,6,2.69,6,6v1.52
		C168.88,55.69,162.85,61.73,155.43,61.73z M130.08,44.75c-1.11,0-2,0.9-2,2v1.52c0,5.21,4.24,9.45,9.45,9.45h17.9
		c5.21,0,9.45-4.24,9.45-9.45v-1.52c0-1.11-0.9-2-2-2H130.08z"/>
</g>
</svg>
