<svg width="24" height="24" viewBox="0 0 24 24" fill="none" xmlns="http://www.w3.org/2000/svg">
<rect width="24" height="24" rx="12" fill="#EEF3FF"/>
<path d="M12.4971 13.9248H11.3936L11.2861 8.92969H12.6094L12.4971 13.9248ZM11.9502 16.0781C11.8135 16.0781 11.6865 16.0439 11.5693 15.9756C11.4521 15.9072 11.3594 15.8145 11.291 15.6973C11.2227 15.5801 11.1901 15.4531 11.1934 15.3164C11.1901 15.1829 11.2227 15.0592 11.291 14.9453C11.3594 14.8281 11.4521 14.737 11.5693 14.6719C11.6865 14.6035 11.8135 14.5693 11.9502 14.5693C12.0837 14.5693 12.2074 14.6035 12.3213 14.6719C12.4385 14.737 12.5312 14.8281 12.5996 14.9453C12.668 15.0592 12.7021 15.1829 12.7021 15.3164C12.7021 15.4531 12.668 15.5801 12.5996 15.6973C12.5312 15.8145 12.4385 15.9072 12.3213 15.9756C12.2074 16.0439 12.0837 16.0781 11.9502 16.0781Z" fill="#6D94EB"/>
</svg>
